<?xml version="1.0" encoding="iso-8859-1"?>
<!-- Uploaded to: SVG Repo, www.svgrepo.com, Generator: SVG Repo Mixer Tools -->
<svg height="800px" width="800px" version="1.1" id="Layer_1" xmlns="http://www.w3.org/2000/svg" xmlns:xlink="http://www.w3.org/1999/xlink" 
	 viewBox="0 0 512.003 512.003" xml:space="preserve">
<g>
	<path style="fill:#556080;" d="M342.593,203.037h91.648h41.684C466.921,89.417,371.936,0.003,256.003,0.003
		S45.077,89.417,36.081,203.037H342.593z"/>
	<polygon style="fill:#24AE5F;" points="434.239,203.037 342.591,203.037 8.829,203.037 8.829,512.003 503.174,512.003 
		503.174,203.037 	"/>
	<path style="fill:#1B8746;" d="M264.83,238.347h141.462c-0.132,1.457-0.221,2.931-0.221,4.414
		c0,26.818,21.734,48.552,48.552,48.552c1.492,0,2.957-0.088,4.414-0.212v62.005v62.014c-1.457-0.124-2.922-0.221-4.414-0.221
		c-26.818,0-48.552,21.742-48.552,48.552c0,1.492,0.088,2.957,0.221,4.414H264.83h0.221H105.933
		c0.132-1.457,0.221-2.922,0.221-4.414c0-26.809-21.734-48.552-48.552-48.552c-1.492,0-2.957,0.097-4.414,0.221v-62.014v-62.005
		c1.457,0.124,2.922,0.212,4.414,0.212c26.818,0,48.552-21.734,48.552-48.552c0-1.483-0.088-2.957-0.221-4.414H265.05H264.83z"/>
	<g>
		<path style="fill:#65DB95;" d="M264.83,424.709c-24.338,0-44.138-19.8-44.138-44.138c0-4.882,3.955-8.828,8.828-8.828
			c4.873,0,8.828,3.946,8.828,8.828c0,14.601,11.882,26.483,26.483,26.483c7.804,0,15.183-3.425,20.233-9.393
			c2.26-2.675,3.302-6.144,2.922-9.754c-0.406-3.875-2.401-7.486-5.491-9.878l-46.168-35.911
			c-6.859-5.332-11.308-13.347-12.209-21.989c-0.883-8.439,1.607-16.605,7.009-22.978c8.404-9.949,20.692-15.651,33.704-15.651
			c24.338,0,44.138,19.809,44.138,44.138c0,4.882-3.955,8.828-8.828,8.828s-8.828-3.946-8.828-8.828
			c0-14.601-11.882-26.483-26.483-26.483c-7.804,0-15.183,3.425-20.233,9.401c-2.26,2.675-3.302,6.135-2.922,9.746
			c0.406,3.884,2.401,7.486,5.491,9.878l46.168,35.919c6.859,5.323,11.308,13.347,12.209,21.981
			c0.883,8.439-1.607,16.605-7.009,22.987C290.13,419.007,277.842,424.709,264.83,424.709"/>
		<path style="fill:#65DB95;" d="M264.83,440.399c-4.873,0-8.828-3.946-8.828-8.828V273.646c0-4.873,3.955-8.828,8.828-8.828
			c4.873,0,8.828,3.955,8.828,8.828v157.926C273.657,436.454,269.703,440.399,264.83,440.399"/>
	</g>
	<g>
		<path style="fill:#8697CB;" d="M421.847,75.209c-3.893-4.44-7.971-8.704-12.209-12.818c-45.48,30.72-98.551,47.007-153.635,47.007
			S147.848,93.112,102.368,62.392c-4.237,4.114-8.316,8.377-12.209,12.818c0.3,0.274,0.494,0.627,0.839,0.874
			c48.737,33.342,105.799,50.97,165.005,50.97S372.262,109.425,421,76.083C421.353,75.836,421.547,75.483,421.847,75.209"/>
		<path style="fill:#8697CB;" d="M278.959,1.209C271.412,0.433,263.758,0,255.999,0c-0.265,0-0.538,0.018-0.812,0.018
			c0.009,2.569,0.998,5.102,3.143,6.85c65.545,53.08,94.773,113.593,94.773,196.167h17.655
			C370.757,119.967,341.476,55.534,278.959,1.209"/>
		<path style="fill:#8697CB;" d="M256.002,0.003c-2.957,0-5.897,0.097-8.828,0.212v202.823h17.655V0.215
			C261.899,0.1,258.959,0.003,256.002,0.003"/>
		<path style="fill:#8697CB;" d="M253.674,6.864c2.145-1.739,3.134-4.273,3.143-6.841c-0.274,0-0.547-0.018-0.812-0.018
			c-7.759,0-15.413,0.424-22.961,1.201c-62.508,54.334-91.798,118.766-91.798,201.834h17.655
			C158.901,120.458,188.13,59.953,253.674,6.864"/>
	</g>
</g>
</svg>